# xmcd
#
# Track frame offsets:
#	150
#	16466
#	35848
#	51460
#	66388
#	77253
#	96559
#	111056
#	120763
#	133753
#	147429
#	162329
#
# Disc length: 2390 seconds
#
# Revision: 0
# Processed by: cddbd v1.5.2PL0 Copyright (c) Steve Scherf et al.
# Submitted via: audiograbber 1.83.01
#
DISCID=a909540c
DTITLE=Joey and Rory - A Farmhouse Christmas
DYEAR=2011
DGENRE=Christmas
TTITLE0=It's Christmas Time
TTITLE1=The Gift
TTITLE2=If We Make It Through December
TTITLE3=Remember Me
TTITLE4=I Know What Santa's Getting For Christmas
TTITLE5=What The Hell (It's The Holidays)
TTITLE6=Blue Christmas
TTITLE7=Come Sit On Santa Claus' Lap
TTITLE8=The Diamond O
TTITLE9=Away In A Manger
TTITLE10=Let It Snow (Somewhere Else)
TTITLE11=Another Wonderful Christmas
EXTD=
EXTT0=
EXTT1=
EXTT2=
EXTT3=
EXTT4=
EXTT5=
EXTT6=
EXTT7=
EXTT8=
EXTT9=
EXTT10=
EXTT11=
PLAYORDER=
